<?xml version="1.0" encoding="UTF-8" standalone="no"?>
<svg
   xmlns:dc="http://purl.org/dc/elements/1.1/"
   xmlns:cc="http://creativecommons.org/ns#"
   xmlns:rdf="http://www.w3.org/1999/02/22-rdf-syntax-ns#"
   xmlns:svg="http://www.w3.org/2000/svg"
   xmlns="http://www.w3.org/2000/svg"
   xmlns:sodipodi="http://sodipodi.sourceforge.net/DTD/sodipodi-0.dtd"
   xmlns:inkscape="http://www.inkscape.org/namespaces/inkscape"
   viewBox="0 0 99.999995 100"
   version="1.1"
   id="svg30"
   sodipodi:docname="favicon.svg"
   width="100"
   height="100"
   inkscape:version="0.92.2 5c3e80d, 2017-08-06">
  <metadata
     id="metadata34">
    <rdf:RDF>
      <cc:Work
         rdf:about="">
        <dc:format>image/svg+xml</dc:format>
        <dc:type
           rdf:resource="http://purl.org/dc/dcmitype/StillImage" />
        <dc:title>Asset 76</dc:title>
      </cc:Work>
    </rdf:RDF>
  </metadata>
  <sodipodi:namedview
     pagecolor="#ffffff"
     bordercolor="#666666"
     borderopacity="1"
     objecttolerance="10"
     gridtolerance="10"
     guidetolerance="10"
     inkscape:pageopacity="0"
     inkscape:pageshadow="2"
     inkscape:window-width="951"
     inkscape:window-height="616"
     id="namedview32"
     showgrid="false"
     fit-margin-top="0"
     fit-margin-left="0"
     fit-margin-right="0"
     fit-margin-bottom="0"
     inkscape:zoom="0.56206086"
     inkscape:cx="252.64168"
     inkscape:cy="49.999999"
     inkscape:window-x="517"
     inkscape:window-y="206"
     inkscape:window-maximized="0"
     inkscape:current-layer="Main" />
  <defs
     id="defs4">
    <style
       id="style2">.cls-1{fill:#ff4e00;}.cls-2{fill:#ffeee1;}.cls-3{fill:#47190d;}</style>
  </defs>
  <title
     id="title6">Asset 76</title>
  <g
     id="Main"
     transform="translate(-3.5583367,1.0990397e-6)">
    <g
       id="icon"
       transform="translate(3.5583367,-1.0990397e-6)">
      <circle
         style="fill:#ff4e00"
         id="circle8"
         r="50"
         cy="50"
         cx="50"
         class="cls-1" />
      <path
         style="fill:#ffeee1"
         inkscape:connector-curvature="0"
         d="m 76.48,23.06 a 11.41,11.41 0 0 0 -3,-4 13.56,13.56 0 0 0 -4.66,-2.53 19.13,19.13 0 0 0 -5.89,-0.87 18.84,18.84 0 0 0 -5.86,0.87 13.59,13.59 0 0 0 -4.67,2.47 11.72,11.72 0 0 0 -3.07,4 12.54,12.54 0 0 0 -1.11,5.38 v 18.28 0 9.9 a 12.11,12.11 0 0 0 -4.15,-3.27 13.35,13.35 0 0 0 -6.15,-1.35 15.77,15.77 0 0 0 -6.13,1.17 14.75,14.75 0 0 0 -4.9,3.33 15.52,15.52 0 0 0 -3.26,5.07 17.18,17.18 0 0 0 -1.18,6.43 16.5,16.5 0 0 0 1.24,6.4 15.09,15.09 0 0 0 3.42,5.08 15.76,15.76 0 0 0 5.16,3.32 17.42,17.42 0 0 0 6.54,1.26 18.47,18.47 0 0 0 6.46,-1.09 13.94,13.94 0 0 0 5.13,-3.26 15.14,15.14 0 0 0 3.42,-5.44 21.65,21.65 0 0 0 1.24,-7.67 v -19.88 0 -16.47 q 0,-4.09 2,-6.22 2,-2.13 5.86,-2.13 a 7.58,7.58 0 0 1 5.8,2.16 q 2,2.14 2,6.22 v 16.44 h 6.85 V 28.44 A 12.85,12.85 0 0 0 76.48,23.06 Z M 47.54,71.93 A 9.07,9.07 0 0 1 45.64,75 8.6,8.6 0 0 1 42.71,77 9.51,9.51 0 0 1 38.93,77.73 9.13,9.13 0 0 1 35.13,77 9,9 0 0 1 32.2,74.95 8.86,8.86 0 0 1 30.3,71.87 11.09,11.09 0 0 1 29.64,67.97 11.42,11.42 0 0 1 30.3,64 a 8.89,8.89 0 0 1 1.9,-3.11 9.19,9.19 0 0 1 2.93,-2.05 9.95,9.95 0 0 1 7.59,0 8.57,8.57 0 0 1 2.93,2.08 9.71,9.71 0 0 1 1.9,3.14 10.81,10.81 0 0 1 0.69,3.87 11.07,11.07 0 0 1 -0.7,4 z"
         class="cls-2"
         id="lock_closed" />
    </g>
  </g>
</svg>
